<svg width="15" height="15" viewBox="0 0 15 15" fill="none" xmlns="http://www.w3.org/2000/svg">
<g id="&#240;&#159;&#166;&#134; icon &#34;comments&#34;">
<path id="Vector" d="M14.9958 0.600949C14.9747 0.34546 14.8025 0.145459 14.5887 0.138142V0.136719H5.77082C5.55166 0.136719 5.37349 0.340785 5.35199 0.600949H5.34766V3.27149H9.07132C9.26699 3.27149 9.42582 3.45361 9.44516 3.68592H9.44899V9.62742H11.2838L12.3652 10.9459C12.4412 11.0835 12.57 11.174 12.7162 11.174C12.9498 11.174 13.1392 10.9431 13.1392 10.6583V9.62742H14.5888V9.62579C14.7883 9.61908 14.9535 9.4451 14.9917 9.2138H15.0002V0.600949H14.9958Z" fill="white"/>
<path id="Vector_2" d="M8.24 4.28516H0.367333V4.28638C0.176667 4.29268 0.0228333 4.47134 0.00383329 4.69959H0V12.3897H0.00766667C0.0418333 12.596 0.189333 12.7513 0.367333 12.7574V12.7586H1.6615V13.6791C1.6615 13.9332 1.83067 14.1395 2.03917 14.1395C2.16967 14.1395 2.28483 14.0586 2.3525 13.9358L3.31783 12.7586H8.24C8.42267 12.7586 8.57517 12.6 8.61 12.3897H8.6175V4.69959H8.61367C8.59467 4.46707 8.43567 4.28516 8.24 4.28516Z" fill="white"/>
</g>
</svg>
