<svg width="40" height="40" viewBox="0 0 40 40" fill="none" xmlns="http://www.w3.org/2000/svg">
<g id="Facebook">
<g id="Rectangle 43">
<mask id="path-1-inside-1_562_2591" fill="white">
<path d="M0 0H40V40H0V0Z"/>
</mask>
<path d="M1 40V0H-1V40H1Z" fill="#CECECE" fill-opacity="0.3" mask="url(#path-1-inside-1_562_2591)"/>
</g>
<g id="&#240;&#159;&#166;&#134; icon &#34;social facebook&#34;">
<path id="Vector" d="M27.1721 11.2617H13.8279C13.3706 11.2617 13 11.6077 13 12.0346V24.4917C13 24.9184 13.3706 25.2644 13.8279 25.2644H21.0119V19.8419H19.0571V17.7286H21.0119V16.17C21.0119 14.3614 22.1952 13.3767 23.9235 13.3767C24.7515 13.3767 25.4629 13.4341 25.6704 13.4599V15.3501L24.4717 15.3507C23.5317 15.3507 23.3498 15.7677 23.3498 16.3795V17.7288H25.5915L25.2996 19.8421H23.3498V25.2644H27.1723C27.6294 25.2644 28 24.9184 28 24.4915V12.0346C28 11.6077 27.6294 11.2617 27.1721 11.2617Z" fill="white"/>
</g>
</g>
</svg>
