<svg width="40" height="40" viewBox="0 0 40 40" fill="none" xmlns="http://www.w3.org/2000/svg">
<g id="Instagram">
<g id="Rectangle 47">
<mask id="path-1-inside-1_562_2603" fill="white">
<path d="M0 0H40V40H0V0Z"/>
</mask>
<path d="M1 40V0H-1V40H1Z" fill="#CECECE" fill-opacity="0.3" mask="url(#path-1-inside-1_562_2603)"/>
</g>
<g id="&#240;&#159;&#166;&#134; icon &#34;social instagram&#34;">
<g id="Group">
<path id="Vector" d="M24.2419 17.3611C24.2419 19.2637 22.5667 20.8061 20.5002 20.8061C18.4337 20.8061 16.7585 19.2637 16.7585 17.3611C16.7585 16.8249 16.8954 16.3195 17.1325 15.8672H13V23.9235C13 24.662 13.6562 25.2663 14.4583 25.2663H26.5417C27.3438 25.2663 28 24.662 28 23.9235V15.8672H23.8677C24.105 16.3195 24.2419 16.8249 24.2419 17.3611Z" fill="white"/>
<path id="Vector_2" d="M26.5417 11.2617H14.4583C13.6562 11.2617 13 11.8659 13 12.6044V15.2899H17.5135C18.1965 14.4557 19.2781 13.9142 20.5 13.9142C21.7219 13.9142 22.8035 14.4557 23.4865 15.2899H28V12.6044C28 11.8659 27.3438 11.2617 26.5417 11.2617ZM14.1992 14.66H13.6562V12.7236C13.6562 12.3848 13.8804 12.0946 14.1994 11.9713L14.1992 14.66ZM15.0887 14.66H14.5744V11.9078H15.0887V14.66ZM15.9781 14.66H15.4637V11.9078H15.9781V14.66ZM16.8669 12.7236V13.8442V14.66H16.3531V11.9078H16.8669V12.7236ZM27.2398 13.8442C27.2398 14.2949 26.8431 14.66 26.3542 14.66H24.9148C24.4256 14.66 24.029 14.2949 24.029 13.8442V12.7236C24.029 12.2728 24.4256 11.9078 24.9148 11.9078H26.3542C26.8433 11.9078 27.2398 12.2728 27.2398 12.7236V13.8442Z" fill="white"/>
<path id="Vector_3" d="M20.499 20.4009C22.319 20.4009 23.7944 19.0419 23.7944 17.3666C23.7944 15.6911 22.3192 14.332 20.499 14.332C18.6785 14.332 17.2031 15.6911 17.2031 17.3666C17.2031 19.0417 18.6785 20.4009 20.499 20.4009ZM20.4988 14.9489C21.9488 14.9489 23.1246 16.0313 23.1246 17.3666C23.1246 18.7016 21.949 19.7843 20.4988 19.7843C19.0485 19.7843 17.8729 18.7018 17.8729 17.3666C17.8731 16.0312 19.0488 14.9489 20.4988 14.9489Z" fill="white"/>
</g>
</g>
</g>
</svg>
