<svg width="40" height="40" viewBox="0 0 40 40" fill="none" xmlns="http://www.w3.org/2000/svg">
<g id="Linkedin">
<g id="Rectangle 45">
<mask id="path-1-inside-1_562_2595" fill="white">
<path d="M0 0H40V40H0V0Z"/>
</mask>
<path d="M1 40V0H-1V40H1Z" fill="#CECECE" fill-opacity="0.3" mask="url(#path-1-inside-1_562_2595)"/>
</g>
<g id="&#240;&#159;&#166;&#134; icon &#34;social linkedin&#34;">
<path id="Vector" d="M26.889 11.2617H14.1073C13.496 11.2617 13 11.7139 13 12.2707V24.2541C13 24.8117 13.496 25.2644 14.1073 25.2644H26.889C27.5006 25.2644 28 24.8117 28 24.2541V12.2707C28 11.7139 27.5006 11.2617 26.889 11.2617ZM17.4488 23.194H15.2229V16.5118H17.4488V23.194ZM16.3358 15.5981C15.6227 15.5981 15.0463 15.0586 15.0463 14.3935C15.0463 13.7293 15.6227 13.1898 16.3358 13.1898C17.0473 13.1898 17.6252 13.7293 17.6252 14.3935C17.6252 15.0586 17.0473 15.5981 16.3358 15.5981ZM25.7812 23.194H23.559V19.9446C23.559 19.1693 23.5427 18.1726 22.4025 18.1726C21.2446 18.1726 21.0681 19.0169 21.0681 19.8883V23.1941H18.8442V16.5118H20.9785V17.4243H21.009C21.306 16.8992 22.0319 16.3451 23.1144 16.3451C25.3656 16.3451 25.7815 17.7286 25.7815 19.5286L25.7812 23.194Z" fill="white"/>
</g>
</g>
</svg>
