<svg width="40" height="40" viewBox="0 0 40 40" fill="none" xmlns="http://www.w3.org/2000/svg">
<g id="Pinterest">
<g id="Rectangle 46">
<mask id="path-1-inside-1_562_2599" fill="white">
<path d="M0 0H40V40H0V0Z"/>
</mask>
<path d="M1 40V0H-1V40H1Z" fill="#CECECE" fill-opacity="0.3" mask="url(#path-1-inside-1_562_2599)"/>
</g>
<g id="&#240;&#159;&#166;&#134; icon &#34;social pinterest&#34;">
<path id="Vector" d="M20.5002 11.2617C16.3585 11.2617 13 14.3964 13 18.2629C13 21.1297 14.8467 23.5922 17.4894 24.6751C17.4683 24.1863 17.4854 23.5991 17.62 23.0679C17.7642 22.4992 18.585 19.2529 18.585 19.2529C18.585 19.2529 18.3454 18.8059 18.3454 18.1453C18.3454 17.1079 18.9896 16.3326 19.7915 16.3326C20.4737 16.3326 20.8033 16.8108 20.8033 17.3836C20.8033 18.0238 20.3662 18.9806 20.1412 19.8681C19.9531 20.6111 20.5402 21.2166 21.325 21.2166C22.746 21.2166 23.7029 19.513 23.7029 17.4942C23.7029 15.9603 22.596 14.8118 20.5823 14.8118C18.3071 14.8118 16.8898 16.3954 16.8898 18.1643C16.8898 18.7747 17.0825 19.2046 17.3844 19.5372C17.5231 19.6904 17.5423 19.7519 17.4921 19.9279C17.4562 20.0566 17.3735 20.3666 17.3394 20.4896C17.2896 20.6669 17.1358 20.7301 16.9638 20.6648C15.916 20.2653 15.4279 19.1942 15.4279 17.99C15.4279 16.001 17.2246 13.6166 20.7881 13.6166C23.6517 13.6166 25.5363 15.5508 25.5363 17.6276C25.5363 20.3736 23.9006 22.4254 21.4894 22.4254C20.68 22.4254 19.9183 22.0167 19.6573 21.5528C19.6573 21.5528 19.2219 23.1655 19.1298 23.4775C18.9708 24.0173 18.6594 24.5569 18.3748 24.9772C19.0494 25.163 19.7619 25.2644 20.5004 25.2644C24.6419 25.264 28 22.1292 28 18.2629C28 14.3964 24.6419 11.2617 20.5002 11.2617Z" fill="white"/>
</g>
</g>
</svg>
