<svg width="40" height="40" viewBox="0 0 40 40" fill="none" xmlns="http://www.w3.org/2000/svg">
<g id="Twitter">
<g id="Rectangle 44">
<mask id="path-1-inside-1_562_2587" fill="white">
<path d="M0 0H40V40H0V0Z"/>
</mask>
<path d="M1 40V0H-1V40H1Z" fill="#CECECE" fill-opacity="0.3" mask="url(#path-1-inside-1_562_2587)"/>
</g>
<g id="&#240;&#159;&#166;&#134; icon &#34;social twitter&#34;">
<path id="Vector" d="M28 14.103C27.4481 14.3841 26.8552 14.574 26.2326 14.6593C26.8678 14.2218 27.356 13.529 27.5855 12.704C26.9909 13.109 26.3321 13.4035 25.6315 13.5615C25.0702 12.875 24.2704 12.4453 23.3852 12.4453C21.6858 12.4453 20.3078 14.0278 20.3078 15.9804C20.3078 16.2572 20.3351 16.5273 20.3877 16.7862C17.83 16.6388 15.5626 15.2313 14.0447 13.0922C13.7798 13.6145 13.628 14.2221 13.628 14.8696C13.628 16.0961 14.1713 17.1778 14.9971 17.812C14.4927 17.7934 14.0182 17.6343 13.6033 17.3698C13.6029 17.3846 13.6029 17.3992 13.6029 17.4144C13.6029 19.1267 14.6636 20.5554 16.0712 20.8806C15.8131 20.9609 15.5413 21.0043 15.2606 21.0043C15.0621 21.0043 14.8695 20.9824 14.6815 20.941C15.073 22.3452 16.2095 23.3676 17.5561 23.3962C16.5029 24.3441 15.1761 24.9096 13.7342 24.9096C13.4858 24.9096 13.241 24.893 13 24.8601C14.3618 25.8631 15.9794 26.448 17.7172 26.448C23.3776 26.448 26.473 21.0616 26.473 16.3906C26.473 16.2376 26.4699 16.0847 26.464 15.9328C27.0658 15.4347 27.5876 14.8119 28 14.103Z" fill="white"/>
</g>
</g>
</svg>
