<svg xmlns="http://www.w3.org/2000/svg" width="40" height="40" viewBox="0 0 40 40" fill="none">
  <mask id="path-1-inside-1_562_2610" fill="white">
    <path d="M0 0H40V40H0V0Z"/>
  </mask>
  <path d="M1 40V0H-1V40H1Z" fill="#CECECE" fill-opacity="0.3" mask="url(#path-1-inside-1_562_2610)"/>
  <path d="M19.4962 22.2283C19.3512 22.4196 19.2139 22.5139 19.0827 22.5139C18.9952 22.5139 18.9454 22.4661 18.9295 22.3712C18.9233 22.3516 18.9233 22.2771 18.9233 22.1339V19.6523H18.2695V22.3175C18.2695 22.5558 18.2912 22.7164 18.3272 22.8185C18.3924 22.9893 18.5379 23.0692 18.7487 23.0692C18.9891 23.0692 19.2362 22.9336 19.496 22.6551V23.0229H20.1508V19.6525H19.4962V22.2283Z" fill="white"/>
  <path d="M15.8945 19.1367H16.6641V23.0235H17.3916V19.1367H18.1754V18.5H15.8945V19.1367Z" fill="white"/>
  <path d="M20.3508 16.19C20.5639 16.19 20.666 16.0325 20.666 15.7173V14.2843C20.666 13.9694 20.5639 13.8125 20.3508 13.8125C20.1374 13.8125 20.0352 13.9694 20.0352 14.2843V15.7173C20.0354 16.0323 20.1374 16.19 20.3508 16.19Z" fill="white"/>
  <path d="M22.0487 19.6119C21.8083 19.6119 21.5842 19.7348 21.3731 19.9775V18.5H20.7188V23.0235H21.3731V22.6963C21.5915 22.949 21.8162 23.0697 22.0487 23.0697C22.3094 23.0697 22.4844 22.9418 22.5719 22.6911C22.6154 22.5481 22.6377 22.3237 22.6377 22.012V20.6698C22.6377 20.3509 22.6154 20.128 22.5719 19.9925C22.4842 19.7398 22.3094 19.6119 22.0487 19.6119ZM21.9835 22.0598C21.9835 22.3642 21.8875 22.5143 21.699 22.5143C21.5915 22.5143 21.4823 22.4665 21.3729 22.3644V20.3098C21.4823 20.2093 21.5913 20.1615 21.699 20.1615C21.8877 20.1615 21.9835 20.3174 21.9835 20.6214V22.0598Z" fill="white"/>
  <path d="M24.1341 19.6133C23.8003 19.6133 23.5395 19.7282 23.3507 19.9591C23.2116 20.1292 23.1484 20.3926 23.1484 20.7526V21.9334C23.1484 22.2913 23.2197 22.5575 23.3586 22.7258C23.5476 22.9558 23.808 23.071 24.1505 23.071C24.4922 23.071 24.7603 22.9502 24.9416 22.7059C25.0207 22.5972 25.0724 22.4749 25.0943 22.3397C25.1001 22.2785 25.1082 22.1427 25.1082 21.9463V21.8568H24.4405C24.4405 22.1019 24.4324 22.2374 24.4264 22.2707C24.3891 22.4338 24.2949 22.5155 24.1341 22.5155C23.9095 22.5155 23.8003 22.3599 23.8003 22.048V21.4506H25.1084V20.7524C25.1084 20.3922 25.0428 20.129 24.9059 19.9589C24.7228 19.728 24.4624 19.6133 24.1341 19.6133ZM24.4543 20.9424H23.8003V20.6306C23.8003 20.3191 23.9095 20.1631 24.1282 20.1631C24.3447 20.1631 24.4543 20.3191 24.4543 20.6306V20.9424Z" fill="white"/>
  <path d="M26.5417 11.2617H14.4583C13.6562 11.2617 13 11.8743 13 12.6231V23.903C13 24.6518 13.6562 25.2644 14.4583 25.2644H26.5417C27.3438 25.2644 28 24.6518 28 23.903V12.6231C28 11.8743 27.3438 11.2617 26.5417 11.2617ZM21.8708 13.2979H22.5298V15.8052C22.5298 15.9503 22.5298 16.0255 22.5379 16.0454C22.5525 16.1411 22.6042 16.1899 22.6929 16.1899C22.825 16.1899 22.964 16.0942 23.1104 15.9009V13.2979H23.7717V16.7033H23.1104V16.3319C22.8473 16.6137 22.5962 16.7506 22.3552 16.7506C22.1423 16.7506 21.9954 16.6699 21.9294 16.4972C21.8929 16.3943 21.8708 16.2311 21.8708 15.9907V13.2979ZM19.3735 14.408C19.3735 14.0442 19.44 13.7779 19.5806 13.6058C19.7635 13.3732 20.021 13.2567 20.3502 13.2567C20.6815 13.2567 20.9385 13.3732 21.1217 13.6058C21.26 13.7779 21.3269 14.0442 21.3269 14.408V15.6012C21.3269 15.9629 21.2602 16.2313 21.1217 16.4023C20.9385 16.6343 20.6817 16.7508 20.3502 16.7508C20.0208 16.7508 19.7633 16.6343 19.5806 16.4023C19.44 16.2313 19.3735 15.9629 19.3735 15.6012V14.408ZM17.6056 12.1334L18.1262 13.9279L18.626 12.1334H19.3673L18.4856 14.8526V16.7033H17.7523V14.8526C17.686 14.5243 17.5394 14.044 17.3044 13.4067C17.1498 12.9827 16.9887 12.5568 16.8344 12.1334H17.6056ZM25.7235 23.2258C25.5915 23.7632 25.1202 24.1596 24.5535 24.2185C23.211 24.3585 21.8525 24.3593 20.5 24.3585C19.1473 24.3593 17.7887 24.3585 16.4465 24.2185C15.8796 24.1594 15.4092 23.763 15.2769 23.2258C15.0883 22.4604 15.0883 21.6249 15.0883 20.8372C15.0883 20.0488 15.0904 19.2139 15.2792 18.4482C15.4113 17.911 15.8819 17.5149 16.4488 17.4558C17.791 17.3154 19.1496 17.315 20.5023 17.3154C21.8548 17.315 23.2133 17.3154 24.5558 17.4558C25.1223 17.5149 25.5933 17.911 25.7256 18.4482C25.9142 19.2141 25.9131 20.0488 25.9131 20.8372C25.9133 21.6249 25.9123 22.4604 25.7235 23.2258Z" fill="white"/>
</svg>